<svg width="140" height="139" xmlns="http://www.w3.org/2000/svg" xmlns:xlink="http://www.w3.org/1999/xlink" xml:space="preserve" overflow="hidden"><g transform="translate(-879 -2133)"><path d="M963.734 2212.79C973.324 2212.79 981.099 2220.89 981.099 2230.89 981.099 2240.89 973.324 2249 963.734 2249 954.144 2249 946.369 2240.89 946.369 2230.89 946.369 2220.89 954.144 2212.79 963.734 2212.79ZM927.365 2185.41C936.955 2185.41 944.73 2193.52 944.73 2203.52 944.73 2213.52 936.955 2221.63 927.365 2221.63 917.775 2221.63 910 2213.52 910 2203.52 910 2193.52 917.775 2185.41 927.365 2185.41ZM966.635 2157C976.225 2157 984 2165.11 984 2175.11 984 2185.11 976.225 2193.21 966.635 2193.21 957.045 2193.21 949.27 2185.11 949.27 2175.11 949.27 2165.11 957.045 2157 966.635 2157Z" fill-rule="evenodd"/></g></svg>