<svg width="42" height="41" xmlns="http://www.w3.org/2000/svg" xmlns:xlink="http://www.w3.org/1999/xlink" xml:space="preserve" overflow="hidden"><g transform="translate(-350 -607)"><path d="M17.3964 36.8082 36.7292 32.1419 36.7292 10.9073 22.6585 4.20677 4.27083 8.21879 4.27083 29.7408ZM22.348 6.8974 31.5465 11.2776 24.0999 12.9466 17.7586 14.3679 9.20877 9.76398ZM6.83333 28.2101 6.83333 11.3954 16.2911 16.4884 16.2911 33.3031ZM34.1667 30.1243 18.8536 33.8207 18.8536 16.7489 25.5093 15.2567 34.1667 13.3165Z" transform="matrix(1.02439 0 0 1 350 607)"/><path d="M22.0759 7.76694 22.9301 7.76694 22.9301 9.47527 22.0759 9.47527Z" transform="matrix(1.02439 0 0 1 350 607)"/><path d="M22.0759 16.7357 22.9301 16.7357 22.9301 18.444 22.0759 18.444Z" transform="matrix(1.02439 0 0 1 350 607)"/><path d="M22.0759 19.7253 22.9301 19.7253 22.9301 21.4336 22.0759 21.4336Z" transform="matrix(1.02439 0 0 1 350 607)"/><path d="M22.0759 10.7565 22.9301 10.7565 22.9301 12.4649 22.0759 12.4649Z" transform="matrix(1.02439 0 0 1 350 607)"/><path d="M22.0759 22.7149 22.9301 22.7149 22.9301 24.4232 22.0759 24.4232Z" transform="matrix(1.02439 0 0 1 350 607)"/><path d="M28.9561 27.5957 29.8138 27.5957 29.8138 29.3112 28.9561 29.3112Z" transform="matrix(0.420508 -0.907289 0.929418 0.410496 341.174 650.315)"/><path d="M20.1559 25.2073 21.8661 25.2073 21.8661 26.0624 20.1559 26.0624Z" transform="matrix(0.999839 -0.212667 0.217854 0.976033 344.908 612.055)"/><path d="M8.46015 27.7593 10.1703 27.7593 10.1703 28.6144 8.46015 28.6144Z" transform="matrix(0.999839 -0.212667 0.217854 0.976033 344.078 609.627)"/><path d="M26.2207 26.3584 27.0784 26.3584 27.0784 28.0734 26.2207 28.0734Z" transform="matrix(0.420395 -0.907341 0.929471 0.410386 340.686 647.114)"/><path d="M31.6914 28.833 32.5492 28.833 32.5492 30.5485 31.6914 30.5485Z" transform="matrix(0.420508 -0.907289 0.929418 0.410496 341.664 653.521)"/><path d="M23.4858 25.1211 24.3435 25.1211 24.3435 26.8365 23.4858 26.8365Z" transform="matrix(0.420395 -0.907341 0.929471 0.410386 340.196 643.908)"/><path d="M11.3841 27.1214 13.0942 27.1214 13.0942 27.9765 11.3841 27.9765Z" transform="matrix(0.999839 -0.212667 0.217854 0.976033 344.285 610.234)"/><path d="M14.308 26.4835 16.0182 26.4835 16.0182 27.3386 14.308 27.3386Z" transform="matrix(0.999839 -0.212667 0.217854 0.976033 344.493 610.841)"/></g></svg>