<svg width="119" height="117" xmlns="http://www.w3.org/2000/svg" xmlns:xlink="http://www.w3.org/1999/xlink" xml:space="preserve" overflow="hidden"><g transform="translate(-2121 -838)"><path d="M2158.67 884.778 2158.67 915.894 2167.1 915.894 2167.1 884.778ZM2194.81 884.331C2192.1 884.331 2189.89 884.847 2188.19 885.878 2186.5 886.909 2185.13 888.093 2184.09 889.433L2183.93 884.778 2175.82 884.778 2175.82 915.894 2184.25 915.894 2184.25 895.139C2185.14 894.013 2186.19 893.056 2187.38 892.27 2188.58 891.484 2190.02 891.09 2191.69 891.09 2192.82 891.09 2193.73 891.324 2194.42 891.792 2195.1 892.259 2195.61 892.918 2195.93 893.768 2196.25 894.619 2196.4 895.607 2196.4 896.733L2196.4 915.894 2204.77 915.894 2204.77 895.649C2204.77 891.951 2203.9 889.14 2202.16 887.217 2200.42 885.293 2197.97 884.331 2194.81 884.331ZM2162.9 872.472C2161.35 872.472 2160.17 872.859 2159.35 873.635 2158.54 874.411 2158.13 875.394 2158.13 876.584 2158.13 877.753 2158.54 878.731 2159.35 879.517 2160.17 880.304 2161.35 880.697 2162.9 880.697 2164.45 880.697 2165.63 880.304 2166.45 879.517 2167.27 878.731 2167.67 877.753 2167.67 876.584 2167.67 875.394 2167.27 874.411 2166.45 873.635 2165.63 872.859 2164.45 872.472 2162.9 872.472ZM2179.38 838 2181.62 838C2213.86 838 2240 864.191 2240 896.5 2240 928.809 2213.86 955 2181.62 955L2179.38 955C2147.14 955 2121 928.809 2121 896.5 2121 864.191 2147.14 838 2179.38 838Z" fill-rule="evenodd"/></g></svg>