<svg width="120" height="118" xmlns="http://www.w3.org/2000/svg" xmlns:xlink="http://www.w3.org/1999/xlink" xml:space="preserve" overflow="hidden"><defs><clipPath id="clip0"><rect x="2450" y="843" width="120" height="118"/></clipPath></defs><g clip-path="url(#clip0)" transform="translate(-2450 -843)"><path d="M2500.33 905.676 2506.58 911.72C2507.58 912.631 2508.83 913.128 2510.08 913.128 2511.33 913.128 2512.58 912.631 2513.58 911.72L2519.84 905.676 2536.01 921.822 2484.08 921.822ZM2538.34 887.625 2538.34 919.503 2522.09 903.357ZM2481.66 887.543 2497.91 903.357 2481.66 919.586ZM2484.16 885.39 2535.92 885.39 2511.17 909.319C2510.5 909.981 2509.5 909.981 2508.83 909.319ZM2476.66 880.422 2476.66 926.79 2543.34 926.79 2543.34 880.422ZM2508.88 843 2511.12 843C2543.64 843 2570 869.415 2570 902 2570 934.585 2543.64 961 2511.12 961L2508.88 961C2476.36 961 2450 934.585 2450 902 2450 869.415 2476.36 843 2508.88 843Z" fill-rule="evenodd"/></g></svg>