<svg width="41" height="41" xmlns="http://www.w3.org/2000/svg" xmlns:xlink="http://www.w3.org/1999/xlink" xml:space="preserve" overflow="hidden"><g transform="translate(-290 -605)"><path d="M314.117 613.085C313.303 612.556 312.656 611.804 312.255 610.919L312.255 610.099C312.255 609.274 311.586 608.605 310.761 608.605 309.935 608.605 309.266 609.274 309.266 610.099L309.266 632.829C307.813 632.581 306.32 632.729 304.944 633.256 301.681 634.439 299.678 637.164 300.464 639.338 301.249 641.511 304.538 642.327 307.801 641.135 310.073 640.294 311.726 638.74 312.255 637.108L312.255 620.93C312.533 621.167 312.83 621.379 313.144 621.567 318.158 624.531 315.386 629.344 317.846 629.344 320.942 629.369 321.07 617.719 314.117 613.085Z"/></g></svg>