<svg width="119" height="117" xmlns="http://www.w3.org/2000/svg" xmlns:xlink="http://www.w3.org/1999/xlink" xml:space="preserve" overflow="hidden"><defs><clipPath id="clip0"><rect x="2276" y="845" width="119" height="117"/></clipPath></defs><g clip-path="url(#clip0)" transform="translate(-2276 -845)"><path d="M2320.72 920.74 2320.72 924.024 2352.13 924.024 2352.13 920.74ZM2320.72 914.172 2320.72 917.456 2352.13 917.456 2352.13 914.172ZM2320.72 907.605 2320.72 910.889 2352.13 910.889 2352.13 907.605ZM2320.72 901.037 2320.72 904.32 2352.13 904.32 2352.13 901.037ZM2320.72 894.469 2320.72 897.753 2331.47 897.753 2331.47 894.469ZM2341.39 877.639 2351.72 887.901 2341.39 887.901ZM2315.76 875.586 2336.43 875.586 2336.43 892.827 2357.09 892.827 2357.09 931.413 2315.76 931.413ZM2310.8 870.661 2310.8 936.339 2362.05 936.339 2362.05 888.722 2341.39 870.661ZM2334.38 845 2336.62 845C2368.86 845 2395 871.191 2395 903.5 2395 935.809 2368.86 962 2336.62 962L2334.38 962C2302.14 962 2276 935.809 2276 903.5 2276 871.191 2302.14 845 2334.38 845Z" fill-rule="evenodd"/></g></svg>